<svg width="177" height="133" viewBox="0 0 177 133" fill="none" xmlns="http://www.w3.org/2000/svg">
<path d="M131.157 88.74C140.222 78.7026 155.739 77.7236 166.516 85.5242C172.219 90.0367 175.983 96.2402 176.862 103.551C177.565 110.626 175.556 117.493 171.165 123.053C166.241 128.839 159.871 132.356 152.273 132.948C145.324 133.381 138.492 131.084 133.267 126.448C132.681 125.909 132.119 125.351 131.558 124.787C131.372 124.605 131.185 124.423 130.993 124.236C128.41 121.549 126.423 117.986 125.337 114.418C125.287 114.255 125.238 114.092 125.187 113.925C123.24 107.17 124.18 99.9532 127.446 93.8074C128.399 92.0853 129.526 90.5573 130.84 89.0965C130.945 88.979 131.049 88.861 131.157 88.74ZM52.8154 77.2078C54.9094 77.2359 56.811 77.4103 58.8301 78.0027C59.1224 78.0848 59.4156 78.1672 59.7168 78.2517C66.3856 80.299 71.8881 85.0581 75.167 91.2351C77.1663 95.1715 78.0637 99.2095 78.0439 103.626C78.0422 104.09 78.0418 104.09 78.04 104.564C78.0134 106.736 77.8668 108.708 77.251 110.8C77.1723 111.088 77.0937 111.377 77.0127 111.675C75.9911 115.095 74.3559 118.261 71.9883 120.928C71.8187 121.131 71.6493 121.333 71.4746 121.542C67.0832 126.675 60.693 129.549 54.0459 130.093C47.0265 130.534 40.2371 128.502 34.9072 123.822C34.7497 123.698 34.592 123.573 34.4297 123.445C29.6482 119.566 26.731 112.991 26.0557 106.941C25.6236 98.4291 27.6819 91.4959 33.3369 85.0554C38.1795 79.9251 44.9727 77.1696 51.9521 77.2039C52.2369 77.2051 52.522 77.2066 52.8154 77.2078ZM155.625 103.248C152.587 100.796 150.222 99.2164 147.107 102.6C145.316 105.031 145.316 105.031 144.954 107.906C145.828 109.835 147.507 111.399 149.399 112.3C150.506 112.66 151.415 112.483 152.433 111.98C154.955 110.43 157.699 108.563 159.787 106.459C159.619 106.333 159.45 106.208 159.276 106.078C159.04 105.9 158.804 105.723 158.561 105.54C158.433 105.444 158.305 105.348 158.174 105.249C157.311 104.597 156.465 103.928 155.625 103.248ZM52.1318 94.6424C51.8152 95.0127 51.5084 95.3918 51.2051 95.7732C50.2428 96.9745 49.2603 98.1557 48.2578 99.323C47.1614 100.614 46.2034 101.746 46.082 103.477C46.383 105.958 49.3885 108.111 51.1748 109.595C51.4116 109.754 51.6486 109.913 51.8926 110.077C53.0124 109.197 54.1293 108.312 55.2422 107.424C55.4275 107.276 55.6128 107.128 55.8037 106.976C56.8495 106.112 57.5986 105.231 58.0977 103.957C58.1456 101.92 56.6929 100.352 55.5107 98.8474C55.1724 98.4104 54.834 97.9733 54.4961 97.5359C54.3365 97.3308 54.1771 97.1252 54.0127 96.9138C53.6158 96.3939 53.2353 95.8663 52.8623 95.3289C52.7002 95.1024 52.5381 94.8757 52.3711 94.6424H52.1318ZM93.165 27.9636C97.088 25.9256 101.177 26.9172 104.764 29.2898C105.742 30.0193 106.69 30.7821 107.636 31.5545C113.716 36.5106 119.718 40.482 127.77 40.6804C136.469 40.9192 143.795 49.0011 149.927 54.6111C150.403 55.0442 150.884 55.4696 151.369 55.8924C153.372 57.6537 155.315 59.4785 157.174 61.3933C157.566 61.7791 157.958 62.1051 158.396 62.4334C160.304 64.1855 161.232 66.7742 161.462 69.3211C161.477 69.4802 161.493 69.6395 161.509 69.8035C161.581 71.0856 161.321 71.7301 160.505 72.697C158.747 74.5234 156.968 75.1582 154.502 75.4011C154.081 75.4474 153.66 75.4935 153.239 75.5398C153.022 75.5629 152.804 75.5864 152.58 75.6101C143.474 76.5842 133.473 77.7901 127.122 85.1863C123.324 90.0264 121.205 95.9647 119.19 101.716C118.774 102.897 118.346 104.075 117.921 105.254H83.9502L82.9932 98.2595C81.1699 89.9893 77.0569 82.2497 69.8379 77.5769C68.9464 77.0247 68.0361 76.5122 67.1143 76.0135C66.9426 75.9198 66.7706 75.8257 66.5938 75.7293C63.3718 74.0475 59.9856 73.1104 56.4678 72.3054C49.1598 70.6229 49.16 70.6227 47.1494 67.7263C46.7497 67.0621 46.3784 66.3898 46.0166 65.7039C45.8894 65.4711 45.7619 65.2386 45.6309 64.9988C45.322 64.4321 22.306 62.5707 22 61.9998C22.4552 61.6211 23.0693 61.2894 23.8105 60.9998H22V46.3709L4.9043 45.4998L0 41.9998H22V39.9998H63V41.9998H75.5996L80 30.9998H89.4355C90.2598 29.709 91.2782 29.096 93.165 27.9636ZM63 60.9998H59.9189C66.3645 62.4311 72.7621 64.0934 79.165 65.7039C79.5215 64.8127 79.8172 63.911 80.085 62.9998H74V55.9998H63V60.9998ZM132.775 48.4724C132.335 48.4722 132.335 48.4726 131.885 48.4724C131.078 48.473 130.271 48.4774 129.465 48.4841C128.622 48.4902 127.779 48.4908 126.937 48.492C125.34 48.495 123.744 48.5028 122.147 48.5125C120.33 48.5233 118.513 48.5291 116.695 48.534C112.957 48.544 109.219 48.5603 105.481 48.5818C105.476 49.6641 105.473 50.7466 105.47 51.8289C105.468 52.1336 105.466 52.4387 105.465 52.7527C105.456 57.0671 105.854 60.9197 108.83 64.2566C109.952 65.1592 111.175 65.5546 112.604 65.531C114.82 65.2475 116.933 64.2352 118.938 63.2927C122.919 61.4631 126.982 59.8294 131.037 58.1736C131.964 57.7949 132.89 57.4149 133.815 57.034C134.205 56.8739 134.594 56.7136 134.983 56.5545C135.456 56.3609 135.928 56.1648 136.398 55.9675C136.647 55.8644 136.896 55.7614 137.152 55.655C138.145 55.1467 138.634 54.6014 139.213 53.6463C139.096 52.5675 138.374 51.8963 137.688 51.114C137.451 50.8405 137.215 50.5667 136.979 50.2927C136.875 50.1726 136.769 50.0523 136.661 49.9285C136.342 49.5467 136.342 49.5465 136.04 49.0476C135.662 48.5323 135.662 48.5325 135.065 48.4636C134.844 48.4645 134.622 48.4657 134.394 48.4666C134.012 48.4646 134.012 48.4637 133.622 48.4617C133.343 48.4652 133.063 48.4689 132.775 48.4724ZM99.7549 2.43142C104.177 -0.683287 110.085 -0.88266 114.572 2.28103C117.486 4.52815 119.34 7.515 119.835 11.2029C119.852 11.4573 119.866 11.737 119.879 12.0369L110.663 11.2527L109.968 19.4265L119.618 20.2468C119.287 23.2522 118.646 26.0857 117.5 27.4998C114.864 30.3097 111.5 26.9996 104 24.9998C100.603 24.8034 100.086 23.8829 97.752 21.366C95.2655 18.194 94.2148 15.0641 94.5254 11.0593C94.9983 7.54101 97.0305 4.59622 99.7549 2.43142ZM119.998 12.8474L120.232 16.5418L119.629 19.74L111.111 19.0164L111.705 12.0242L119.998 12.8474Z" fill="#FFFFF0"/>
</svg>
