<svg width="177" height="133" viewBox="0 0 177 133" fill="none" xmlns="http://www.w3.org/2000/svg">
<path d="M131.157 88.7395C140.223 78.7023 155.739 77.7232 166.516 85.5237C172.219 90.0363 175.983 96.2396 176.862 103.55C177.566 110.626 175.556 117.494 171.165 123.054C166.241 128.839 159.871 132.356 152.273 132.948C145.324 133.38 138.492 131.084 133.267 126.448C132.681 125.909 132.119 125.351 131.558 124.786C131.372 124.605 131.185 124.423 130.993 124.236C128.41 121.549 126.423 117.985 125.337 114.417C125.287 114.255 125.238 114.092 125.187 113.924C123.24 107.169 124.18 99.9527 127.446 93.8069C128.399 92.0848 129.526 90.5568 130.84 89.096C130.945 88.9786 131.049 88.8605 131.157 88.7395ZM52.8154 77.2073C54.9093 77.2354 56.811 77.4099 58.8301 78.0022C59.1224 78.0843 59.4156 78.1667 59.7168 78.2513C66.3856 80.2985 71.8881 85.0576 75.167 91.2346C77.1663 95.1711 78.0637 99.209 78.0439 103.625C78.0422 104.09 78.0418 104.091 78.04 104.565C78.0134 106.736 77.8668 108.709 77.251 110.8C77.1724 111.088 77.0937 111.377 77.0127 111.674C75.9911 115.095 74.3559 118.26 71.9883 120.928C71.8187 121.13 71.6493 121.333 71.4746 121.541C67.0832 126.675 60.693 129.549 54.0459 130.092C47.0266 130.534 40.237 128.503 34.9072 123.823C34.7497 123.698 34.592 123.574 34.4297 123.446C29.6482 119.566 26.7311 112.991 26.0557 106.942C25.6236 98.4297 27.6821 91.4963 33.3369 85.0559C38.1795 79.9256 44.9727 77.1691 51.9521 77.2034C52.2369 77.2046 52.522 77.2061 52.8154 77.2073ZM155.062 102.799C152.288 100.618 150.027 99.4281 147.107 102.601C145.316 105.031 145.316 105.031 144.954 107.906C145.828 109.834 147.507 111.399 149.399 112.299C150.506 112.66 151.415 112.482 152.433 111.98C154.955 110.429 157.699 108.564 159.787 106.459C159.619 106.333 159.45 106.207 159.276 106.077C159.04 105.9 158.804 105.722 158.561 105.539C158.433 105.444 158.305 105.348 158.174 105.249C157.743 104.924 157.315 104.593 156.891 104.259L155.062 102.799ZM52.1318 94.6429C51.8154 95.0131 51.5083 95.3914 51.2051 95.7727C50.2428 96.974 49.2604 98.1552 48.2578 99.3225C47.1613 100.614 46.2033 101.746 46.082 103.478C46.3832 105.958 49.3886 108.111 51.1748 109.594C51.4116 109.753 51.6486 109.912 51.8926 110.076C53.0124 109.197 54.1293 108.312 55.2422 107.423C55.4274 107.276 55.6129 107.128 55.8037 106.976C56.8493 106.112 57.5986 105.232 58.0977 103.957C58.1458 101.92 56.693 100.352 55.5107 98.8479C55.1722 98.4107 54.8342 97.973 54.4961 97.5354C54.3364 97.3303 54.1772 97.1248 54.0127 96.9134C53.6158 96.3935 53.2353 95.8668 52.8623 95.3294C52.7002 95.1029 52.5381 94.8762 52.3711 94.6429H52.1318ZM93.165 27.9632C97.088 25.9251 101.177 26.9167 104.764 29.2893C105.742 30.0188 106.69 30.7816 107.636 31.554C113.716 36.5102 119.718 40.4815 127.77 40.68C136.469 40.9187 143.795 49.0006 149.927 54.6106C150.403 55.0437 150.884 55.4691 151.369 55.8919C153.372 57.6532 155.315 59.478 157.174 61.3929C157.566 61.7786 157.958 62.1047 158.396 62.4329C160.304 64.1851 161.232 66.7746 161.462 69.3216C161.477 69.4805 161.493 69.6393 161.509 69.803C161.581 71.0853 161.321 71.7304 160.505 72.6975C158.747 74.5239 156.968 75.1578 154.502 75.4007C154.081 75.4469 153.66 75.493 153.239 75.5393C153.022 75.5624 152.804 75.5859 152.58 75.6096C143.474 76.5837 133.473 77.7905 127.122 85.1868C123.324 90.0268 121.205 95.9644 119.19 101.715C118.774 102.897 118.346 104.075 117.921 105.253H83.9502C83.4765 101.792 83.4764 101.791 82.9932 98.26C81.17 89.9898 77.0569 82.2503 69.8379 77.5774C68.9464 77.0251 68.0362 76.5118 67.1143 76.013C66.9426 75.9194 66.7706 75.8262 66.5938 75.7298C63.3717 74.0479 59.9857 73.1109 56.4678 72.3059C49.16 70.6235 49.1597 70.6228 47.1494 67.7268C46.7497 67.0626 46.3784 66.3893 46.0166 65.7034C45.8895 65.4707 45.7619 65.2381 45.6309 64.9983C45.3187 64.4315 22.3014 62.57 22 61.9993C22.4552 61.6207 23.0693 61.2889 23.8105 60.9993H22V46.3704L4.9043 45.4993L0 41.9993H22V39.9993H63V41.9993H75.5996L80 30.9993H89.4355C90.2598 29.7086 91.2782 29.0955 93.165 27.9632ZM63 60.9993H59.9189C66.3645 62.4307 72.7621 64.093 79.165 65.7034C79.5215 64.8122 79.8172 63.9105 80.085 62.9993H74V55.9993H63V60.9993ZM132.775 48.472C132.335 48.4717 132.335 48.4722 131.885 48.472C131.078 48.4725 130.271 48.4769 129.465 48.4837C128.622 48.4897 127.779 48.4903 126.937 48.4915C125.34 48.4945 123.744 48.5023 122.147 48.512C120.33 48.5228 118.513 48.5286 116.695 48.5335C112.957 48.5436 109.219 48.5608 105.481 48.5823C105.476 49.6646 105.473 50.7471 105.47 51.8294C105.468 52.1339 105.466 52.4385 105.465 52.7522C105.456 57.0668 105.854 60.9202 108.83 64.2571C109.952 65.1597 111.175 65.5541 112.604 65.5305C114.82 65.247 116.933 64.2347 118.938 63.2923C122.919 61.4626 126.982 59.8289 131.037 58.1731C131.964 57.7944 132.89 57.4144 133.815 57.0335C134.205 56.8734 134.594 56.7131 134.983 56.554C135.456 56.3604 135.928 56.1644 136.398 55.9671C136.647 55.8639 136.896 55.7609 137.152 55.6546C138.145 55.1462 138.634 54.6009 139.213 53.6458C139.095 52.5673 138.374 51.8967 137.688 51.1145C137.451 50.8409 137.215 50.5663 136.979 50.2923C136.875 50.1722 136.769 50.0527 136.661 49.929C136.342 49.547 136.342 49.5461 136.04 49.0471C135.662 48.5321 135.662 48.532 135.065 48.4632C134.844 48.4641 134.622 48.4652 134.394 48.4661C134.012 48.4641 134.012 48.4642 133.622 48.4622C133.343 48.4657 133.063 48.4684 132.775 48.472ZM99.7549 2.43094C104.177 -0.683893 110.085 -0.883967 114.572 2.27957C117.486 4.52674 119.341 7.51434 119.836 11.2024C119.853 11.4569 119.867 11.7364 119.88 12.0364L110.664 11.2522L109.968 19.4251L119.618 20.2464C119.287 23.2517 118.646 26.0852 117.501 27.4993C114.865 30.3101 111.501 26.9993 104.001 24.9993C100.603 24.803 100.086 23.8826 97.752 21.3655C95.2656 18.1935 94.2148 15.0636 94.5254 11.0589C94.9984 7.54041 97.0304 4.59574 99.7549 2.43094ZM119.998 12.847L120.232 16.5413L119.629 19.7405L111.111 19.0159L111.705 12.0237L119.998 12.847Z" fill="#00B14F"/>
</svg>
