<svg width="177" height="133" viewBox="0 0 177 133" fill="none" xmlns="http://www.w3.org/2000/svg">
<path d="M131.157 88.74C140.222 78.7024 155.739 77.7235 166.516 85.5242C172.218 90.0366 175.983 96.2394 176.862 103.55C177.566 110.626 175.556 117.493 171.165 123.053C166.241 128.839 159.871 132.355 152.273 132.947C145.324 133.38 138.492 131.084 133.267 126.448C132.681 125.909 132.119 125.351 131.558 124.787C131.372 124.605 131.185 124.423 130.993 124.236C128.41 121.549 126.423 117.985 125.337 114.417C125.287 114.254 125.238 114.091 125.187 113.924C123.241 107.169 124.18 99.953 127.446 93.8074C128.399 92.0852 129.526 90.5563 130.84 89.0955C130.944 88.9781 131.049 88.8609 131.157 88.74ZM52.8154 77.2078C54.9094 77.2358 56.811 77.4103 58.8301 78.0027C59.1224 78.0848 59.4156 78.1672 59.7168 78.2517C66.3855 80.299 71.8881 85.0572 75.167 91.2341C77.1664 95.1706 78.0637 99.2094 78.0439 103.626C78.0422 104.09 78.0418 104.09 78.04 104.564C78.0134 106.736 77.8668 108.708 77.251 110.8C77.1724 111.088 77.0937 111.376 77.0127 111.674C75.9911 115.094 74.356 118.261 71.9883 120.928C71.8187 121.131 71.6493 121.333 71.4746 121.542C67.0832 126.675 60.693 129.549 54.0459 130.093C47.0265 130.534 40.2371 128.502 34.9072 123.822C34.7496 123.698 34.592 123.573 34.4297 123.445C29.6481 119.566 26.7311 112.991 26.0557 106.941C25.6236 98.4291 27.6819 91.4959 33.3369 85.0554C38.1795 79.9251 44.9727 77.1696 51.9521 77.2039C52.2369 77.205 52.522 77.2066 52.8154 77.2078ZM155.625 103.248C152.587 100.796 150.222 99.2162 147.107 102.6C145.316 105.031 145.316 105.031 144.954 107.906C145.828 109.835 147.507 111.399 149.399 112.3C150.506 112.66 151.415 112.483 152.433 111.98C154.955 110.43 157.699 108.564 159.787 106.459C159.619 106.333 159.45 106.208 159.276 106.078C159.04 105.9 158.804 105.723 158.561 105.54C158.433 105.444 158.305 105.348 158.174 105.249C157.311 104.597 156.465 103.928 155.625 103.248ZM52.1318 94.6423C51.8154 95.0125 51.5083 95.3909 51.2051 95.7722C50.2428 96.9735 49.2603 98.1547 48.2578 99.322C47.1613 100.614 46.2034 101.745 46.082 103.477C46.383 105.958 49.3885 108.11 51.1748 109.594C51.4116 109.753 51.6486 109.912 51.8926 110.076C53.0124 109.196 54.1293 108.312 55.2422 107.424C55.4275 107.276 55.6128 107.128 55.8037 106.976C56.8495 106.112 57.5986 105.231 58.0977 103.957C58.1457 101.92 56.693 100.352 55.5107 98.8474C55.1723 98.4102 54.8341 97.9724 54.4961 97.5349C54.3366 97.3299 54.177 97.125 54.0127 96.9138C53.6158 96.3939 53.2353 95.8663 52.8623 95.3289C52.7002 95.1023 52.5381 94.8757 52.3711 94.6423H52.1318ZM93.165 27.9636C97.088 25.9256 101.177 26.9171 104.764 29.2898C105.742 30.0192 106.69 30.7813 107.636 31.5535C113.716 36.5097 119.718 40.482 127.77 40.6804C136.469 40.9192 143.795 49.0011 149.927 54.6111C150.403 55.0442 150.884 55.4687 151.369 55.8914C153.372 57.6528 155.315 59.4783 157.174 61.3933C157.566 61.7791 157.958 62.1051 158.396 62.4334C160.304 64.1856 161.232 66.7742 161.462 69.3211C161.477 69.4802 161.493 69.6395 161.509 69.8035C161.581 71.0856 161.321 71.7301 160.505 72.697C158.747 74.5234 156.968 75.1582 154.502 75.4011C154.081 75.4474 153.66 75.4935 153.239 75.5398C153.022 75.5628 152.804 75.5854 152.58 75.6091C143.474 76.5832 133.473 77.79 127.122 85.1863C123.324 90.0265 121.205 95.9647 119.19 101.716C118.774 102.897 118.346 104.074 117.921 105.253H83.9502C83.4766 101.791 83.4764 101.791 82.9932 98.2595C81.1699 89.9892 77.057 82.2498 69.8379 77.5769C68.9464 77.0247 68.0361 76.5122 67.1143 76.0134C66.9426 75.9198 66.7706 75.8257 66.5938 75.7293C63.3717 74.0474 59.9857 73.1104 56.4678 72.3054C49.1599 70.6229 49.1599 70.6226 47.1494 67.7263C46.7497 67.0621 46.3784 66.3897 46.0166 65.7039C45.8894 65.471 45.7619 65.2377 45.6309 64.9978C45.3106 64.4307 22.3108 62.5708 22 61.9998C22.4552 61.6212 23.0693 61.2894 23.8105 60.9998H22V46.3709L4.9043 45.4998L0 41.9998H22V39.9998H63V41.9998H75.5996L80 30.9998H89.4346C90.2589 29.7085 91.2779 29.0961 93.165 27.9636ZM63 60.9998H59.9199C66.3651 62.4311 72.7624 64.0935 79.165 65.7039C79.5215 64.8128 79.8172 63.9109 80.085 62.9998H74V55.9998H63V60.9998ZM132.775 48.4724C132.335 48.4722 132.335 48.4717 131.885 48.4714C131.078 48.472 130.271 48.4774 129.465 48.4841C128.622 48.4902 127.779 48.4908 126.937 48.492C125.34 48.4949 123.744 48.5028 122.147 48.5125C120.33 48.5232 118.513 48.5281 116.695 48.533C112.957 48.5431 109.219 48.5603 105.481 48.5818C105.476 49.6641 105.473 50.7465 105.47 51.8289C105.468 52.1336 105.466 52.4387 105.465 52.7527C105.456 57.0671 105.854 60.9198 108.83 64.2566C109.952 65.1592 111.175 65.5546 112.604 65.531C114.82 65.2475 116.933 64.2342 118.938 63.2918C122.919 61.4621 126.982 59.8284 131.037 58.1726C131.964 57.7939 132.89 57.4139 133.815 57.033C134.205 56.8729 134.594 56.7136 134.983 56.5545C135.456 56.3609 135.928 56.1648 136.398 55.9675C136.647 55.8643 136.896 55.7604 137.152 55.6541C138.145 55.1458 138.634 54.6012 139.213 53.6462C139.096 52.5675 138.374 51.8963 137.688 51.114C137.451 50.8405 137.215 50.5667 136.979 50.2927C136.875 50.1726 136.769 50.0523 136.661 49.9285C136.342 49.5466 136.342 49.5465 136.04 49.0476C135.662 48.5321 135.662 48.5315 135.065 48.4627C134.844 48.4635 134.622 48.4647 134.394 48.4656C134.012 48.4636 134.012 48.4637 133.622 48.4617C133.343 48.4651 133.063 48.4688 132.775 48.4724ZM99.7549 2.43043C104.177 -0.684285 110.085 -0.883607 114.572 2.28004C117.486 4.52725 119.341 7.51472 119.836 11.2029C119.853 11.4572 119.867 11.7362 119.88 12.0359L110.664 11.2517L109.968 19.4255L119.618 20.2468C119.287 23.2518 118.646 26.0847 117.501 27.4988C114.865 30.3097 111.501 26.9988 104.001 24.9988C100.603 24.8025 100.086 23.8822 97.752 21.365C95.2656 18.1929 94.2147 15.0632 94.5254 11.0584C94.9984 7.53998 97.0304 4.5952 99.7549 2.43043ZM119.998 12.8464L120.232 16.5418L119.629 19.74L111.111 19.0164L111.705 12.0242L119.998 12.8464Z" fill="#122023"/>
</svg>
